<svg xmlns="http://www.w3.org/2000/svg" viewBox="0 0 512 512">
<title>Koding Survivor</title>
<defs>
<linearGradient id="bg" x1="0" y1="0" x2="1" y2="1"><stop offset="0" stop-color="#0f3b3a"/><stop offset="1" stop-color="#0a1c2e"/></linearGradient>
<radialGradient id="gl" cx=".5" cy=".5" r=".5"><stop offset="0" stop-color="#5ee6d6" stop-opacity=".55"/><stop offset="1" stop-color="#5ee6d6" stop-opacity="0"/></radialGradient>
<clipPath id="cp"><rect width="512" height="512" rx="112"/></clipPath>
</defs>
<g clip-path="url(#cp)">
<rect width="512" height="512" fill="url(#bg)"/>
<circle cx="256" cy="262" r="215" fill="url(#gl)"/>
<circle cx="256" cy="262" r="200" fill="none" stroke="#5ee6d6" stroke-width="7" stroke-dasharray="16 14" opacity=".55"/>
<g fill="none" stroke="#b6ff3b" stroke-width="36" stroke-linecap="round" stroke-linejoin="round">
<path d="M142 172 L82 250 L142 328"/><path d="M370 172 L430 250 L370 328"/></g>
<g fill="none" stroke="#07150f" stroke-width="0"></g>
<ellipse cx="256" cy="418" rx="96" ry="18" fill="#000" opacity=".35"/>
<g stroke="#07150f" stroke-width="8" stroke-linejoin="round">
<rect x="318" y="296" width="54" height="74" rx="16" fill="#9b633d"/><rect x="332" y="318" width="26" height="12" rx="4" fill="#e9b96d" stroke="none"/>
<rect x="216" y="356" width="40" height="52" rx="16" fill="#2b3b52"/><rect x="262" y="356" width="40" height="52" rx="16" fill="#2b3b52"/>
<rect x="208" y="392" width="52" height="22" rx="10" fill="#f3f6f2"/><rect x="258" y="392" width="52" height="22" rx="10" fill="#f3f6f2"/>
<rect x="190" y="284" width="132" height="110" rx="48" fill="#2fb59a"/>
<rect x="198" y="292" width="116" height="30" rx="15" fill="#ffc857"/>
<circle cx="184" cy="338" r="20" fill="#f2c18d"/><circle cx="328" cy="338" r="20" fill="#f2c18d"/>
<circle cx="256" cy="210" r="84" fill="#2a1a12"/>
<ellipse cx="256" cy="222" rx="68" ry="72" fill="#f2c18d"/>
<path d="M184 214 C170 120 342 120 328 214 Q308 166 260 176 Q214 182 184 214 Z" fill="#2a1a12"/>
</g>
<g>
<ellipse cx="226" cy="228" rx="17" ry="21" fill="#fff"/><ellipse cx="286" cy="228" rx="17" ry="21" fill="#fff"/>
<ellipse cx="230" cy="230" rx="11" ry="15" fill="#2a1a12"/><ellipse cx="290" cy="230" rx="11" ry="15" fill="#2a1a12"/>
<circle cx="226" cy="222" r="4.5" fill="#fff"/><circle cx="286" cy="222" r="4.5" fill="#fff"/>
<ellipse cx="204" cy="262" rx="12" ry="8" fill="#ff7a7a" opacity=".45"/><ellipse cx="308" cy="262" rx="12" ry="8" fill="#ff7a7a" opacity=".45"/>
<path d="M238 266 Q256 286 276 266" fill="none" stroke="#8a4a3a" stroke-width="7" stroke-linecap="round"/>
</g>
<g transform="translate(-30,30)" stroke="#07150f" stroke-width="7"><circle cx="392" cy="130" r="27" fill="#7ffbe9"/><rect x="376" y="124" width="32" height="14" rx="6" fill="#0b2224" stroke="none"/><rect x="383" y="128" width="18" height="6" rx="3" fill="#ffd23c" stroke="none"/><path d="M392 103 L392 88" fill="none" stroke="#fff" stroke-width="6" stroke-linecap="round"/><circle cx="392" cy="82" r="8" fill="#ff4fa3"/></g>
<path d="M126 392 l9 20 22 2 -17 14 6 22 -20 -12 -20 12 6 -22 -17 -14 22 -2z" fill="#ffd23c" stroke="#07150f" stroke-width="6" stroke-linejoin="round" transform="translate(34,-30)"/>
</g></svg>